<?xml version="1.0" encoding="UTF-8"?>
<!-- Generator: Adobe Illustrator 26.3.1, SVG Export Plug-In . SVG Version: 6.00 Build 0)  -->
<svg version="1.1" id="Layer_1" xmlns="http://www.w3.org/2000/svg" xmlns:xlink="http://www.w3.org/1999/xlink" x="0px" y="0px" viewBox="0 0 241.7 235.7" style="enable-background:new 0 0 241.7 235.7;" xml:space="preserve">
<style type="text/css">
	.st0{fill:#F3F3F3;}
	.st1{fill-rule:evenodd;clip-rule:evenodd;fill:#FFFFFF;}
	.st2{fill:#FF005D;}
	.st3{fill:#FFC2D8;}
	.st4{fill:#082642;}
	.st5{fill:#FFC2D8;stroke:#082642;stroke-width:1.916;stroke-miterlimit:10;}
	.st6{fill:#082642;stroke:#FFFFFF;stroke-width:0.2395;stroke-miterlimit:10;}
</style>
<path class="st0" d="M228.2,97.4c2.7,34.8-9,68.4-25,92.3c-16.3,24.1-36.8,38.5-58.7,40.4c-22.1,1.9-43-8.5-63.7-24.1  c-20.4-15.8-40.5-36.7-53.5-60.9C0.2,98.4,22.4,44.2,88.5,17.6C154.1-9.1,224.6,25.9,228.2,97.4z"/>
<path class="st1" d="M230.3,76.9v50.9h-9.5V164h2v19.6H32.2V164h2v-56.1L23,116.3c-0.5,0.3-1.1,0.3-1.5-0.2l-2.5-3.4  c-0.3-0.5-0.3-1.1,0.2-1.5l70.1-52.8l24.5,18.5H132v-6.1h1.7V58.9H132V54h1.7v-4.9h10.7V54h1.7v4.9h-1.7v11.9h1.7v6.1H230.3  L230.3,76.9z"/>
<path class="st2" d="M158,120.8c0,0.1-0.6,0.2-1.3,0.2s-1.3-0.1-1.3-0.2v-5.5c0-0.1,0.6-0.2,1.3-0.2s1.3,0.1,1.3,0.2V120.8  L158,120.8z"/>
<rect x="157" y="138.4" class="st3" width="53.1" height="45.2"/>
<path class="st2" d="M133.5,90.7c0,0.7-0.6,1.3-1.3,1.3s-1.3-0.6-1.3-1.3v-6.5c0-0.7,0.6-1.3,1.3-1.3s1.3,0.6,1.3,1.3V90.7  L133.5,90.7z"/>
<path class="st2" d="M121.2,81.5c0,0.7-0.6,1.3-1.3,1.3c-0.7,0-1.3-0.6-1.3-1.3v-4.6c0-0.7,0.6-1.3,1.3-1.3c0.7,0,1.3,0.6,1.3,1.3  V81.5L121.2,81.5z"/>
<path class="st2" d="M219.3,120.4c0,0.8-0.6,1.4-1.3,1.4s-1.3-0.6-1.3-1.4V77c0-0.8,0.6-1.4,1.3-1.4s1.3,0.6,1.3,1.4V120.4  L219.3,120.4z"/>
<path class="st2" d="M207.1,120c0,0.8-0.6,1.4-1.3,1.4s-1.3-0.6-1.3-1.4V77c0-0.8,0.6-1.4,1.3-1.4s1.3,0.6,1.3,1.4V120L207.1,120z"/>
<path class="st2" d="M194.8,120.4c0,0.8-0.6,1.4-1.3,1.4s-1.3-0.6-1.3-1.4V77c0-0.8,0.6-1.4,1.3-1.4s1.3,0.6,1.3,1.4V120.4  L194.8,120.4z"/>
<path class="st2" d="M182.5,120.3c0,0.8-0.6,1.4-1.3,1.4s-1.3-0.6-1.3-1.4V77c0-0.8,0.6-1.4,1.3-1.4s1.3,0.6,1.3,1.4V120.3  L182.5,120.3z"/>
<path class="st2" d="M170.3,120.9c0,0.8-0.6,1.4-1.3,1.4s-1.3-0.6-1.3-1.4V77.1c0-0.8,0.6-1.4,1.3-1.4s1.3,0.6,1.3,1.4V120.9  L170.3,120.9z"/>
<path class="st2" d="M158,108.7c0,0.7-0.6,1.3-1.3,1.3s-1.3-0.6-1.3-1.3V76.9c0-0.7,0.6-1.3,1.3-1.3s1.3,0.6,1.3,1.3V108.7  L158,108.7z"/>
<path class="st2" d="M145.7,100c0,0.7-0.6,1.3-1.3,1.3s-1.3-0.6-1.3-1.3V84.2c0-0.7,0.6-1.3,1.3-1.3s1.3,0.6,1.3,1.3V100L145.7,100z  "/>
<rect x="43.8" y="121.2" class="st3" width="49.4" height="32.2"/>
<g>
	<path class="st4" d="M94.1,154.3H42.9v-34h51.2C94.1,120.3,94.1,154.3,94.1,154.3z M44.7,152.5h47.6v-30.3H44.7V152.5z"/>
</g>
<g>
	<rect x="67.6" y="121.2" class="st4" width="1.8" height="32.5"/>
</g>
<circle class="st5" cx="88.5" cy="88.6" r="8.3"/>
<path class="st6" d="M138,167.6h-30.2v-2.3h0.7h5.5h18h5.5h0.7v2.3H138z M138,172.5h-30.2v-2.3H138V172.5L138,172.5z M138,177.5  h-30.2v-2.4H138V177.5L138,177.5z M100,110.5v52.2h-0.7H35.5v-54.2L89.3,68l26.2,19.7l-29.9,22.5c-0.5,0.4-0.8,1-0.9,1.6  s0.1,1.2,0.5,1.7l2.5,3.4c0.4,0.5,1,0.8,1.6,0.9s1.2-0.1,1.7-0.4L100,110.5L100,110.5z M144.9,106.6l-21.2-16  c-0.5-0.4-1.1-0.3-1.6,0l-21.5,16.2l-0.1,0.1l-10.9,8.2l-2.2-3l31.1-23.4l0,0l4.5-3.4l35.5,26.8l-2.2,3l-10.7-8.1  C145.3,106.8,145.1,106.7,144.9,106.6L144.9,106.6z M138.1,116.8c-2.1-1.9-4.5-3.3-7.1-4.3s-5.4-1.5-8.2-1.5c-2.8,0-5.6,0.5-8.2,1.5  s-5,2.4-7.1,4.3c-0.3,0.2-0.5,0.6-0.5,1v44.9h-0.7h-3.9v-54.2l20.3-15.3l20.3,15.3v13v6.3v34.9h-3.9h-0.7v-44.9  C138.6,117.4,138.4,117,138.1,116.8L138.1,116.8z M112.6,162.7h-2.9v-44.3c1.8-1.5,3.8-2.7,5.9-3.5c2.3-0.9,4.8-1.3,7.3-1.3  s5,0.5,7.3,1.3c2.1,0.8,4.1,2,5.9,3.5v44.3h-2.9H112.6L112.6,162.7z M207.5,151.8h-49.7v-12.6h49.7V151.8L207.5,151.8z M207.5,167.1  h-49.7V164v-9.6h49.7v9.6V167.1L207.5,167.1z M229,122.8v3.7h-8.2h-75v-3.7H229L229,122.8z M219.5,129.1v33.6h-9.4v-9.6v-15.2  c0-0.7-0.6-1.3-1.3-1.3h-52.3c-0.7,0-1.3,0.6-1.3,1.3v15.2v9.6h-8.7h-0.7v-33.6H219.5L219.5,129.1z M133.3,57.6v-2.3h0.4h10.7h0.4  v2.3h-0.4h-10.7H133.3L133.3,57.6z M143.1,52.7H135v-2.3h8.1V52.7L143.1,52.7z M144.8,72.1v4.8v6h-11.5v-6v-4.8h0.4h10.7H144.8  L144.8,72.1z M143.1,69.5H135v-9.3h8.1V69.5L143.1,69.5z M113.1,78l7.6,5.7l-3.1,2.3L90.1,65.3c-0.5-0.4-1.1-0.3-1.6,0l-55.1,41.5  l-0.1,0.1l-10.9,8.2l-2.2-3L89.3,60L113.1,78L113.1,78L113.1,78z M117.7,78.2h13v6c0,0.7,0.6,1.3,1.3,1.3h14.1  c0.7,0,1.3-0.6,1.3-1.3v-6H229v42h-83.3v-9.7l9.1,6.8c0.5,0.4,1.1,0.5,1.7,0.4c0.6-0.1,1.2-0.4,1.6-0.9l2.5-3.4l0,0l0,0  c0.4-0.5,0.5-1.1,0.4-1.7s-0.4-1.2-0.9-1.6l-36.5-27.5l0,0l0,0L117.7,78.2L117.7,78.2z M33.5,183.6v-18.3h0.7H98v18.3  c0,0.7,0.6,1.3,1.3,1.3c0.7,0,1.3-0.6,1.3-1.3v-18.3h0.7h3.9v3.6v4.9v5v4.8c0,0.7,0.6,1.3,1.3,1.3c0.7,0,1.3-0.6,1.3-1.3v-3.5H138  v3.5c0,0.7,0.6,1.3,1.3,1.3s1.3-0.6,1.3-1.3v-4.8v-5v-4.9v-3.6h3.9h0.7v18.3c0,0.7,0.6,1.3,1.3,1.3s1.3-0.6,1.3-1.3v-18.3h7.4v3.1  v15.2c0,0.7,0.6,1.3,1.3,1.3s1.3-0.6,1.3-1.3v-13.9h49.7v13.9c0,0.7,0.6,1.3,1.3,1.3s1.3-0.6,1.3-1.3v-15.2v-3.1h10.7h0.7v18.3  c0,0.7,0.6,1.3,1.3,1.3s1.3-0.6,1.3-1.3V164c0-0.7-0.6-1.3-1.3-1.3h-0.7v-33.6h8.2c0.7,0,1.3-0.6,1.3-1.3v-6.3V76.9  c0-0.7-0.6-1.3-1.3-1.3h-82.9v-4.8c0-0.7-0.6-1.3-1.3-1.3h-0.4v-9.3h0.4c0.7,0,1.3-0.6,1.3-1.3V54c0-0.7-0.6-1.3-1.3-1.3h-0.4v-3.6  c0-0.7-0.6-1.3-1.3-1.3h-10.7c-0.7,0-1.3,0.6-1.3,1.3v3.6H132c-0.7,0-1.3,0.6-1.3,1.3v4.9c0,0.7,0.6,1.3,1.3,1.3h0.4v9.3H132  c-0.7,0-1.3,0.6-1.3,1.3v4.8h-16.5L90.1,57.4c-0.5-0.4-1.1-0.4-1.6,0l-70.1,52.8c-0.5,0.4-0.8,1-0.9,1.6s0.1,1.2,0.4,1.7l2.5,3.4  c0.4,0.5,1,0.8,1.6,0.9s1.2-0.1,1.7-0.4l9.1-6.8v52.2h-0.7c-0.7,0-1.3,0.6-1.3,1.3v19.6c0,0.7,0.6,1.3,1.3,1.3  C32.9,184.9,33.5,184.3,33.5,183.6L33.5,183.6z M123.9,82.9c-0.1-0.1-0.1-0.2-0.2-0.2L123.9,82.9L123.9,82.9z M90.3,57.6  c-0.1-0.1-0.1-0.2-0.2-0.2L90.3,57.6L90.3,57.6z"/>
<g>
	<rect x="1.8" y="183.3" class="st4" width="238.9" height="1.8"/>
</g>
<rect x="112.8" y="121" class="st2" width="20.1" height="41.8"/>
<g>
	<path class="st4" d="M133.8,163.7h-21.9v-43.6h21.9V163.7z M113.7,161.9H132V122h-18.3V161.9z"/>
</g>
</svg>