<?xml version="1.0" encoding="utf-8"?>
<!-- Generator: Adobe Illustrator 26.3.1, SVG Export Plug-In . SVG Version: 6.00 Build 0)  -->
<svg version="1.1" id="Layer_1" xmlns="http://www.w3.org/2000/svg" xmlns:xlink="http://www.w3.org/1999/xlink" x="0px" y="0px"
	 viewBox="0 0 241.7 235.7" style="enable-background:new 0 0 241.7 235.7;" xml:space="preserve">
<style type="text/css">
	.st0{fill:#F3F3F3;}
	.st1{fill:#FF005D;}
	.st2{fill:#FFFFFF;}
	.st3{fill:#082642;}
	.st4{fill:#FFC2D8;}
</style>
<path class="st0" d="M216.6,79.8c-20.5-32.4-53-55.4-82.7-67.4c-30.2-12-57.6-13-78-2.1c-20.6,11-32,32.2-39.9,57.9
	C8.7,93.9,4.9,124,9.4,152.8c6.9,56.9,62.1,92.2,137.5,77.9C222,216.7,260.6,145.3,216.6,79.8z"/>
<path class="st1" d="M210.3,206L210.3,206c-4.5,4.5-11.8,4.5-16.3,0l-36.8-36.8l16.3-16.3l36.8,36.8
	C214.8,194.1,214.8,201.4,210.3,206z"/>
<rect x="151.8" y="147.5" transform="matrix(0.7071 -0.7071 0.7071 0.7071 -63.1312 158.4304)" class="st2" width="15.7" height="15.8"/>
<path class="st3" d="M159.7,167.3c-0.2,0-0.4-0.1-0.5-0.2L148,155.9c-0.3-0.3-0.3-0.8,0-1.1l11.1-11.1c0.3-0.3,0.8-0.3,1.1,0
	l11.2,11.2c0.3,0.3,0.3,0.8,0,1.1l-11.1,11.1C160.1,167.2,159.9,167.3,159.7,167.3z M149.7,155.4l10.1,10.1l10-10l-10.1-10.1
	L149.7,155.4z"/>
<path class="st4" d="M107.3,165.3c21.4,0,40.2-10.8,51.3-27.3l-2.6-3c-4.8-5.5-12.3-7.8-19.4-6.1l-42,10.3
	c-7.9,1.9-13.8,8.6-14.8,16.7l-0.3,2.8C87.8,162.9,97.3,165.3,107.3,165.3z"/>
<path class="st2" d="M120.3,132.3L110,148.7c-2.7,4.4-9.3,3.5-10.8-1.5l-11.7-38.5l23.1-7.3L120.3,132.3z"/>
<path class="st3" d="M104.9,152.3c-0.3,0-0.6,0-0.9-0.1c-2.7-0.4-4.8-2.2-5.6-4.7L86.6,109c-0.1-0.4,0.1-0.8,0.5-1l23.1-7.3
	c0.2-0.1,0.4,0,0.6,0.1s0.3,0.3,0.4,0.5l9.8,30.9c0.1,0.2,0,0.5-0.1,0.6l-10.4,16.4C109.3,151.2,107.2,152.3,104.9,152.3z
	 M88.3,109.3l11.5,37.8c0.6,2,2.3,3.4,4.3,3.7c2.1,0.3,4-0.6,5.1-2.4l10.2-16.1l-9.5-29.8L88.3,109.3z"/>
<path class="st3" d="M114.9,119.7l-5.8-18.3l-21.8,6.9l6.2,19.6C101.3,128.5,109.2,125.7,114.9,119.7z"/>
<path class="st3" d="M105.6,64.5l-5.8,0.7c-13.6,1.7-24.3,11.9-25.9,24.7L72,105.5c-0.7,5.8,3.6,11.1,9.8,11.8l23.6,2.9L105.6,64.5z
	"/>
<path class="st3" d="M94.7,65l6.8-0.5c15.8-1.1,29.9,7.2,34.2,20.2l5.1,15.7c1.9,5.9-2.1,12.2-8.9,14.3l-26.3,7.9L94.7,65z"/>
<g>
	<path class="st3" d="M97,71.7c-0.3,0-0.6-0.2-0.7-0.5l-5.4-14.3c-0.9-2.4-0.5-5,1.1-7.2c0.3-0.3,0.7-0.4,1.1-0.2
		c0.3,0.3,0.4,0.7,0.2,1.1c-1.3,1.8-1.7,3.8-0.9,5.7l5.4,14.3c0.2,0.4,0,0.8-0.4,1C97.2,71.6,97.1,71.7,97,71.7z"/>
</g>
<path class="st3" d="M97.3,71.1l-3.7-14.7c-1.2-4.6,2.2-9.1,7.2-9.6l5.5-0.6c5.5-0.6,10.1,3.9,9.2,9.1l-2.8,16.9L97.3,71.1z"/>
<path class="st2" d="M135.1,90.1c-1.1-3.8-5.1-6-8.9-4.8h-0.1c-3.2-10.9-11.4-18.8-21-18.8c-10.7,0-19.6,9.6-21.9,22.3
	c-3.3,0.1-6.2,2.6-6.8,6l0,0c-0.7,3.9,2,7.6,5.9,8.3l1.2,0.2c2.7,11.9,11.3,20.5,21.5,20.5c11.1,0,20.3-10.3,22.1-23.9l3.2-0.9
	C134.1,97.9,136.2,93.9,135.1,90.1z"/>
<path class="st3" d="M105,124.6c-10.1,0-19.1-8.4-22.1-20.6l-0.7-0.1c-4.3-0.7-7.3-4.8-6.5-9.2c0.6-3.5,3.4-6.2,6.9-6.6
	C85,74.9,94.2,65.7,105,65.7c9.5,0,18.1,7.4,21.6,18.6c1.8-0.4,3.8-0.1,5.4,0.8c1.9,1,3.2,2.7,3.8,4.7l0,0c1.3,4.2-1.2,8.6-5.4,9.9
	l-2.7,0.8C125.8,114.5,116.2,124.6,105,124.6z M105,67.3c-10,0-18.9,9.1-21.1,21.7c-0.1,0.4-0.4,0.6-0.7,0.6c-3,0.1-5.5,2.4-6,5.4
	c-0.6,3.5,1.8,6.8,5.3,7.4l1.2,0.2c0.3,0.1,0.6,0.3,0.6,0.6c2.7,11.7,11.2,19.9,20.7,19.9c10.6,0,19.6-9.8,21.3-23.2
	c0-0.3,0.3-0.6,0.5-0.6l3.2-0.9c3.4-1,5.3-4.6,4.3-8l0,0c-0.5-1.6-1.6-3-3.1-3.8s-3.2-1-4.9-0.5h-0.1c-0.2,0.1-0.4,0-0.6-0.1
	s-0.3-0.3-0.4-0.5C122.2,74.6,114,67.3,105,67.3z"/>
<path class="st3" d="M114.9,68.2c-3.1-2-6.5-3.2-10.1-3.2c-11,0-20.2,10.4-22.5,24.3c-0.7,0-1.4,0.2-2.1,0.4
	C93,90.3,106.2,82,114.9,68.2z"/>
<g>
	<path class="st3" d="M88.7,92.4c-0.4,0-0.7-0.3-0.8-0.7c0-0.4,0.3-0.8,0.7-0.8c9.9-1,19.2-8.9,24.3-20.7c0.2-0.4,0.6-0.6,1-0.4
		s0.6,0.6,0.4,1C109,83.1,99.2,91.4,88.7,92.4L88.7,92.4z"/>
</g>
<g>
	<path class="st3" d="M110.4,81.9c-0.2,0-0.3,0-0.4-0.1c-0.3-0.2-0.4-0.7-0.2-1.1c2.4-3.4,3.8-7.5,4.2-12.2c0-0.4,0.4-0.7,0.8-0.7
		s0.7,0.4,0.7,0.8c-0.4,4.9-1.9,9.3-4.5,12.9C110.9,81.8,110.7,81.9,110.4,81.9z"/>
</g>
<g>
	<path class="st3" d="M126.8,95.1c-0.4,0-0.7-0.3-0.8-0.6c-0.6-3.4,2.2-5.2,2.3-5.2c0.4-0.2,0.8-0.1,1.1,0.3
		c0.2,0.4,0.1,0.8-0.3,1.1l0,0c-0.1,0.1-2,1.3-1.6,3.7c0.1,0.4-0.2,0.8-0.6,0.9C126.9,95.1,126.8,95.1,126.8,95.1z"/>
</g>
<g>
	<path class="st3" d="M82.3,98.3L82.3,98.3c-0.5-0.1-0.8-0.4-0.8-0.9l0,0c0-0.1,0.3-2.4-1.9-3.5c-0.4-0.2-0.5-0.7-0.3-1
		c0.2-0.4,0.7-0.5,1-0.3c3,1.7,2.7,4.9,2.6,5.1C83,98,82.7,98.3,82.3,98.3z"/>
</g>
<path class="st3" d="M97.2,95.1c0.1,1.5,0.9,2.6,1.9,2.5c0.9-0.1,1.6-1.3,1.5-2.8s-0.9-2.6-1.9-2.5C97.7,92.4,97.1,93.6,97.2,95.1z"
	/>
<path class="st3" d="M112,94.9c0,1.5,0.8,2.6,1.7,2.6c0.9,0,1.7-1.2,1.7-2.6c0-1.5-0.8-2.6-1.7-2.6S112,93.4,112,94.9z"/>
<g>
	<path class="st3" d="M104.6,115c-0.1,0-0.1,0-0.2,0c-4.8-1-7.1-4.5-7.2-4.7c-0.2-0.4-0.1-0.8,0.2-1.1c0.4-0.2,0.8-0.1,1.1,0.2
		c0,0.1,2.1,3.1,6.2,4c0.4,0.1,0.7,0.5,0.6,0.9C105.3,114.7,105,115,104.6,115z"/>
</g>
<g>
	<path class="st3" d="M107.2,106.5c-0.4,0-0.7-0.2-0.8-0.6c-0.1-0.4,0.2-0.8,0.6-0.9c0.6-0.1,1-0.5,1.3-1s0.3-1.1,0.2-1.7l-1.8-5.3
		c-0.1-0.4,0.1-0.8,0.5-1c0.4-0.1,0.8,0.1,1,0.5l1.8,5.3c0.3,1,0.2,2-0.3,2.9s-1.3,1.5-2.3,1.7C107.4,106.5,107.3,106.5,107.2,106.5
		z"/>
</g>
<g>
	<path class="st1" d="M94.9,66.4c-0.3,0-0.6-0.2-0.7-0.5c-0.1-0.4,0.1-0.8,0.5-1c11.6-4.1,19.6-0.6,19.9-0.5c0.4,0.2,0.6,0.6,0.4,1
		s-0.6,0.6-1,0.4c-0.1,0-7.8-3.4-18.8,0.5C95,66.4,95,66.4,94.9,66.4z"/>
</g>
<path class="st2" d="M56.6,52.6c-28,28-28,73.5,0,101.5s73.5,28,101.5,0s28-73.5,0-101.5C130,24.6,84.6,24.6,56.6,52.6z
	 M151.4,147.5c-24.3,24.3-63.8,24.3-88.2,0c-24.3-24.3-24.3-63.8,0-88.2C87.5,35,127,35,151.4,59.3
	C175.7,83.6,175.7,123.1,151.4,147.5z"/>
<path class="st3" d="M107.3,175.9c-18.6,0-37.2-7.1-51.3-21.2c-28.3-28.3-28.3-74.3,0-102.6s74.3-28.3,102.6,0s28.3,74.3,0,102.6
	C144.5,168.8,125.9,175.9,107.3,175.9z M107.3,32.4c-18.2,0-36.4,6.9-50.2,20.8c-27.7,27.7-27.7,72.7,0,100.4s72.7,27.7,100.4,0
	s27.7-72.7,0-100.4C143.7,39.3,125.5,32.4,107.3,32.4z M107.3,166.5c-16.2,0-32.3-6.2-44.6-18.5c-24.6-24.6-24.6-64.7,0-89.3
	c11.9-11.9,27.8-18.5,44.6-18.5c16.9,0,32.7,6.6,44.6,18.5c24.6,24.6,24.6,64.7,0,89.3C139.6,160.3,123.5,166.5,107.3,166.5z
	 M107.3,41.8c-15.8,0-31.5,6-43.5,18c-24,24-24,63.1,0,87.1c12,12,27.8,18,43.5,18c15.8,0,31.5-6,43.5-18c24-24,24-63.1,0-87.1
	C138.9,47.8,123.1,41.8,107.3,41.8z"/>
</svg>
