<?xml version="1.0" encoding="utf-8"?>
<!-- Generator: Adobe Illustrator 26.3.1, SVG Export Plug-In . SVG Version: 6.00 Build 0)  -->
<svg version="1.1" id="Layer_1" xmlns="http://www.w3.org/2000/svg" xmlns:xlink="http://www.w3.org/1999/xlink" x="0px" y="0px"
	 viewBox="0 0 392.7 235.7" style="enable-background:new 0 0 392.7 235.7;" xml:space="preserve">
<style type="text/css">
	.st0{fill:#F3F3F3;}
	.st1{fill:none;stroke:#082642;stroke-width:2;stroke-linecap:round;stroke-linejoin:round;stroke-miterlimit:10;}
	.st2{fill:#FF005D;}
	.st3{fill:none;stroke:#FFFFFF;stroke-width:1.855;stroke-linecap:round;stroke-linejoin:round;stroke-miterlimit:10;}
	.st4{fill:#FFFFFF;}
	.st5{fill:#082642;}
	.st6{fill:#FFC2D8;}
	.st7{fill:#FFFFFF;stroke:#082642;stroke-width:2;stroke-linecap:round;stroke-linejoin:round;stroke-miterlimit:10;}
	.st8{fill:none;stroke:#FFFFFF;stroke-width:2;stroke-linecap:round;stroke-linejoin:round;stroke-miterlimit:10;}
	.st9{fill:none;stroke:#082642;stroke-width:2;stroke-linecap:round;stroke-linejoin:round;}
	.st10{fill:none;stroke:#082642;stroke-width:2;stroke-linecap:round;stroke-linejoin:round;stroke-dasharray:2.0601,4.1203;}
	.st11{fill:#FF005C;}
</style>
<path class="st0" d="M301.2,69.1c11.7,33.7,8.2,70.3-2,98.5c-10.5,28.5-27.7,48.5-49.6,56.5c-22.1,8-46.1,3.6-71.1-6
	c-24.8-9.9-50.6-25.1-70-45.4C68.9,134,77.7,74,138.3,29.1C198.5-15.7,279.3-0.8,301.2,69.1z"/>
<path class="st1" d="M293.7,69.4c0,1-0.8,1.8-1.8,1.8h-31.4c-1,0-1.8-0.8-1.8-1.8V51.9c0-1,0.8-1.8,1.8-1.8h31.4
	c1,0,1.8,0.8,1.8,1.8V69.4z"/>
<line class="st1" x1="261.7" y1="68.5" x2="270.1" y2="60.1"/>
<line class="st1" x1="290.6" y1="68.5" x2="282.3" y2="60.1"/>
<path class="st1" d="M259.5,50.8l13.7,11.4c1.7,1.4,4.4,1.4,6.1,0L293,50.8"/>
<circle class="st2" cx="292.2" cy="50.6" r="6.3"/>
<line class="st3" x1="292.2" y1="48.6" x2="292.2" y2="53.4"/>
<path class="st4" d="M238.3,172.4c0,0-9.3,1.7-13-2s-44.6-48.1-44.6-48.1s-8.1-5.7-14.5-3.8c-6.4,1.9-10.3,6.2-11.6,9.1
	c-1.3,3-10.8,34.4-10.8,34.4l-28.4,20.6c0,0-9.5,11.6-1.3,19c8.1,7.3,11.6,5.5,11.6,5.5h95.6c0,0,15.1-12.5,16.6-18.3
	C239.5,183.1,238.3,172.4,238.3,172.4z"/>
<path class="st5" d="M130.6,158.1l18.8-14.5c0,0,2.8-9.4,6.8-17.4c2.3-4.7,8.9-7.4,8.9-7.4l-9.2-16.2l-25.6,20.6
	C130.2,123.2,134.2,148.2,130.6,158.1z"/>
<path class="st5" d="M153.9,128l0.3-24.4c0,0,16.8-8.1,26.6-8.9c9.8-0.9,30.7-1.7,44,2.6c13.3,4.3,36.8,38.2,36.8,38.2l-28.7,11.9
	l10.1,25.2c0,0-11.9,3.8-18.5-2c-6.7-5.8-35-40-35-40S170.9,106.2,153.9,128z"/>
<circle class="st5" cx="207.7" cy="59.6" r="18.8"/>
<ellipse class="st5" cx="192" cy="46.3" rx="9.5" ry="9.5"/>
<path class="st1" d="M226.5,172.5l-44.7-48.8c-8.5-9.2-23.8-5.9-27.7,6l-16.8,51.5l33,13.9l12.2-44"/>
<g>
	<path class="st4" d="M151.3,190.3l9.3,15.7L122,228.9c-3.2,1.9-7.3-3.6-6-8.2l18.1-24.7C134.1,196,143.1,203,151.3,190.3z"/>
	<path class="st6" d="M151.5,190.7l6.7,11.2l-38.6,22.9c-3.2,1.9-5.8-1.1-4.1-4.9l18.3-23.8C133.8,196.2,142.4,201.7,151.5,190.7z"
		/>
	<path class="st1" d="M151.3,190.3l9.3,15.7L122,228.9c-3.2,1.9-7.3-3.6-6-8.2l18.1-24.7C134.1,196,143.1,203,151.3,190.3z"/>
</g>
<line class="st1" x1="134.1" y1="196" x2="139.2" y2="183.1"/>
<line class="st1" x1="151.3" y1="190.3" x2="152.4" y2="187.9"/>
<g>
	<path class="st4" d="M208.9,193.4l5.1-13.3l41.1,18.2c3.4,1.5,1.3,8-3.2,9.7l-30.6-0.5C221.3,207.5,223.1,198,208.9,193.4z"/>
	<path class="st6" d="M208.3,193.7l3.8-9.3l41.1,18.2c3.4,1.5,2.4,5.3-1.6,6.1l-30-1.1C221.6,207.6,222.2,198.3,208.3,193.7z"/>
	<path class="st1" d="M208.3,193.7l5.7-13.6l41.1,18.2c3.4,1.5,1.3,8-3.2,9.7l-30.6-0.5C221.3,207.5,223.9,199.2,208.3,193.7z"/>
</g>
<line class="st1" x1="221.8" y1="207.5" x2="159.1" y2="207.4"/>
<line class="st1" x1="197.3" y1="190.5" x2="208.6" y2="193.7"/>
<path class="st1" d="M143.4,161.3l-26.9,20.9c-10.2,8.3-4.4,24.9,8.8,24.9"/>
<polyline class="st1" points="175.3,179.8 197,183.3 197,206.1 "/>
<path class="st1" d="M238.7,174.6c0,0,2,11-1.7,15.3"/>
<path class="st5" d="M205,86.2c0,0,10.2,4.6,17.5,2.9s20.2-7.8,8.3-25c-11.9-17.3-17.5-15.8-24.1-18.2S188,35.7,186,40.8
	c-1.9,5.1,1.5,11.2,2.9,13.6C190.5,56.8,205,86.2,205,86.2z"/>
<path class="st7" d="M218.4,102.5c0,0-3.9-6.3-6.1-11.4c-2.2-5.1-3.2-16-3.2-16s6-2.7,8.2-5.3c2.2-2.7,2.2-9-1.9-9.2
	c-3.5-0.2-5.7,4.4-6.1,4.4c-4-0.8-2.1-11.7-12.6-12.4c-7.3-0.5-10.4-4.9-10.4-4.9S179.2,71,179,76.6c-0.3,8,12.2,6.6,12.2,6.6
	l0.3,14.2C191.5,97.3,193.8,112.9,218.4,102.5z"/>
<path class="st7" d="M197.7,64.8c-2,0.8-4.5,0.4-6.2-1"/>
<path class="st7" d="M186.2,61.1c-1.4,0.3-3-0.3-3.9-1.4"/>
<path class="st7" d="M197,58.4c-0.9-0.6-1.9-0.9-2.9-0.9"/>
<path class="st7" d="M188.2,55.9c-0.6-0.5-2.3-1-3.2-0.8"/>
<path class="st7" d="M186.9,64.3c-0.9,1.5-2.4,3.7-3,4.5c0.6,0.7,1.5,1.3,2.5,1.5"/>
<path class="st7" d="M193.4,75.7c-0.8,1.7-3.1,2.7-4.9,2.1"/>
<path class="st7" d="M197,80.9c-3.5,2.1-8.9,2.9-12.8,1.8"/>
<line class="st8" x1="234.4" y1="148.7" x2="228.4" y2="132.3"/>
<path class="st4" d="M130.4,106.9c0-0.1-0.8-8.4-9.1-9.4c-7.7-1-12.5-3.7-15.6-8.7c-1.5-2.5-2.8-3.6-4-3.6l0,0
	c-0.7,0-1.2,0.5-1.3,0.7c-0.1,0.1-1.2,2.4-0.7,5.6c0.2,1.1,0.6,2.4,1.4,3.8c-3.5-2-5.9-3.6-7-4.7c-2.1-2.2-7-3.8-8.7-2.4
	c-0.5,0.4-0.8,1-0.5,2.1c-0.1-0.1-0.2-0.1-0.3-0.2c-0.1,0-1.8-0.2-2.9,0.8c-0.6,0.5-0.9,1.2-0.9,2c0,1.3,1.6,3.7,4.2,6.5
	c-2.2-0.4-5.9-0.8-7.2-0.2c-1.9,0.9-2.3,3.6-2.3,3.7c0,0.2,0.1,0.5,0.4,0.5l22,5.8c1.2,0.6,2.4,1.2,3.6,1.7c0.1,0,5.8,1.3,6.6,13
	s-0.1,13.6-0.1,13.7c-0.1,0.1-0.1,0.3-0.1,0.4c0,0.1,0.1,0.2,0.2,0.3c0.3,0.1,5.1,2.8,14.1,2.8c2.8,0,6.1-0.3,9.7-1
	c0.2,0,0.4-0.3,0.4-0.5L130.4,106.9z"/>
<g>
	<path class="st1" d="M131.9,139.8l-2-32.9c0,0-0.7-8-8.6-9c-8-1-12.8-3.8-16-9s-4.5-2.9-4.5-2.9s-4.6,8.7,8.8,16.5"/>
	<path class="st1" d="M106.2,107.1c0,0-16.3-9.3-20-15.2c-3.7-5.8,4.7-4,7.6-1c1.8,1.9,6.9,4.7,8.7,5.7"/>
	<path class="st1" d="M84.5,90.6c0,0-3.2-0.3-3.2,2.4c0,2.6,9.2,13.1,20.3,17.6c0,0,6.2,1.2,7,13.5s-0.2,14-0.2,14"/>
	<path class="st1" d="M86.5,100.3c0,0-6.8-1.3-8.5-0.5s-2,3.3-2,3.3l22.1,5.8"/>
</g>
<path class="st5" d="M105.6,133.9c0,0,23.9,2,26.9,1.3s3,18.3,0.3,21.3C130.2,159.5,104.3,170.4,105.6,133.9z"/>
<line class="st8" x1="132.2" y1="149.8" x2="131.9" y2="136.5"/>
<path class="st4" d="M290.8,92.9c0-0.2-0.3-1.5-3-2.3c0.6-0.7,1.8-2.2,1.6-3.3c0-0.4-0.3-0.7-0.6-0.9c-0.7-0.4-1.5-0.5-2.4-0.5
	l0.1-0.1c0-0.1,0.7-1.3,0.1-2.4c-0.5-0.8-1.5-1.2-3-1.3c-4-0.1-10.1,4.8-10.8,5.4l-8.9,4.1c0.4-0.8,1-2,1.7-3.6c1.2-3-1.3-5-2.9-5.7
	c-0.2-0.1-0.5,0-0.6,0.2l-5.7,9.6l-5.3,7.2c-3,4-4.3,8.9-3.9,13.8l2.1,22.9c0,0.1,0.1,0.3,0.2,0.3c0.1,0.1,0.2,0.1,0.3,0.1
	c0,0,0,0,0.1,0l25.1-2.8c0.1,0,0.3-0.1,0.4-0.2c0.1-0.1,0.1-0.3,0.1-0.4l-6.4-21c1.4-0.9,7.3-4.8,12.4-8.4c4.4-3.1,6.8-5.8,6.7-7.6
	c0-0.2,0-0.3-0.1-0.5l2.6-2.1C290.8,93.2,290.9,93.1,290.8,92.9z"/>
<g>
	<path class="st1" d="M250,135.8l-2.1-22.9c-0.4-4.8,0.9-9.6,3.8-13.5l5.3-7.2l5.7-9.6c0,0,3.9,1.7,2.6,5s-2.4,4.7-2.4,4.7
		s2.1,5.1-4.4,12.4"/>
	<path class="st1" d="M263.9,92.1l9.3-4.3c0,0,6.5-5.5,10.5-5.3s2.5,3,2.5,3"/>
	<path class="st1" d="M269.2,95.6l7.6-4.7c0,0,7.5-6.5,11.8-4.2c1.2,0.6-0.9,3.3-1.5,3.8"/>
	<path class="st1" d="M271.9,98.4l7.8-4.2c0,0,4.6-4,7.5-3.3c2.9,0.7,3.1,2,3.1,2l-2.8,2.3"/>
	<path class="st1" d="M274.5,101.1c0,0,4.8-2.2,6.8-3.3c2-1.2,4.2-3.7,5.8-2.7c1.5,0.9-0.1,3.9-5.9,8.1s-12.7,8.6-12.7,8.6l6.5,21.4
		"/>
</g>
<path class="st5" d="M247.5,135.9l30.2-3.1c0,0,4.4,17.3,4,24.4c-0.4,7.1-10.4,19.1-25.3,14.4c-6.8-2.1-21.7-24.8-21.7-24.8
	L247.5,135.9z"/>
<line class="st8" x1="252.8" y1="153.6" x2="250" y2="136.3"/>
<g>
	<path class="st9" d="M239.2,23.4c0.3,0.1,0.6,0.2,1,0.3"/>
	<path class="st10" d="M244.1,25c9.8,3.5,18.2,8.5,24.6,14.7"/>
	<path class="st9" d="M270.2,41.2c0.2,0.2,0.5,0.5,0.7,0.7"/>
</g>
<g>
	<path class="st10" d="M161.9,29.3c6.5-4.1,13.1-7.1,19.6-8.9"/>
</g>
<g>
	<polyline class="st1" points="228.8,29 228.8,9.4 188.9,9.4 188.9,29 212.2,29 228.8,29 	"/>
	<g>
		<line class="st1" x1="208.8" y1="12" x2="208.8" y2="14.7"/>
		<line class="st1" x1="208.8" y1="23.6" x2="208.8" y2="26.2"/>
		<path class="st1" d="M209.3,19.1h-0.9c-1.2,0-2.2-1-2.2-2.2l0,0c0-1.2,1-2.2,2.2-2.2h0.9c1.2,0,2.2,1,2.2,2.2l0,0"/>
		<path class="st1" d="M208.4,19.1h0.9c1.2,0,2.2,1,2.2,2.2l0,0c0,1.2-1,2.2-2.2,2.2h-0.9c-1.2,0-2.2-1-2.2-2.2l0,0"/>
	</g>
	<path class="st1" d="M194,9.8c0,2.5-2.1,4.6-4.6,4.6"/>
	<path class="st1" d="M193.8,28.9c0-2.5-2.1-4.6-4.6-4.6"/>
	<path class="st1" d="M224,10c0,2.5,2.1,4.6,4.6,4.6"/>
	<path class="st1" d="M224.2,28.9c0-2.5,2.1-4.6,4.6-4.6"/>
</g>
<path class="st11" d="M14.7,34.9c-1.9,0-3.4,2.1-3.4,4.7v32.7c0,2.7,1.5,4.8,3.4,4.8h151.4c1.8,0,3.4-2.1,3.4-4.7V39.6
	c0-2.6-1.5-4.7-3.4-4.7H14.7z"/>
<g>
	<g>
		<path class="st4" d="M22.7,65.6V46.8h6.9c1.3,0,2.4,0.2,3.3,0.7c0.9,0.4,1.5,1,2,1.8c0.4,0.7,0.7,1.6,0.7,2.5c0,0.8-0.1,1.4-0.4,2
			c-0.3,0.5-0.7,1-1.2,1.3c-0.5,0.3-1,0.6-1.6,0.7v0.2c0.6,0,1.2,0.2,1.8,0.6c0.6,0.4,1.1,0.9,1.5,1.6c0.4,0.7,0.6,1.5,0.6,2.5
			c0,1-0.2,1.8-0.7,2.6c-0.5,0.8-1.1,1.4-2.1,1.8s-2.1,0.7-3.6,0.7H22.7z M25.6,54.9h3.8c0.6,0,1.2-0.1,1.7-0.4
			c0.5-0.2,0.9-0.6,1.2-1c0.3-0.4,0.5-1,0.5-1.6c0-0.8-0.3-1.4-0.8-2s-1.4-0.8-2.5-0.8h-3.9V54.9z M25.6,63.2h4.1
			c1.4,0,2.3-0.3,2.9-0.8c0.6-0.5,0.9-1.2,0.9-2c0-0.6-0.1-1.1-0.5-1.6c-0.3-0.5-0.7-0.9-1.3-1.2c-0.6-0.3-1.2-0.4-2-0.4h-4.2V63.2z
			"/>
		<path class="st4" d="M45.3,65.9c-1.4,0-2.6-0.3-3.6-0.9s-1.8-1.4-2.3-2.5c-0.5-1.1-0.8-2.4-0.8-3.8c0-1.4,0.3-2.7,0.8-3.8
			c0.5-1.1,1.3-2,2.3-2.6c1-0.6,2.1-0.9,3.4-0.9c0.8,0,1.6,0.1,2.3,0.4c0.7,0.3,1.4,0.7,2,1.2s1.1,1.3,1.4,2.2
			c0.3,0.9,0.5,2,0.5,3.3v1H40.1v-2.1h8.5c0-0.7-0.1-1.4-0.4-1.9c-0.3-0.6-0.7-1-1.2-1.3c-0.5-0.3-1.2-0.5-1.9-0.5
			c-0.8,0-1.4,0.2-2,0.6c-0.6,0.4-1,0.9-1.3,1.5c-0.3,0.6-0.5,1.3-0.5,2v1.6c0,0.9,0.2,1.7,0.5,2.4c0.3,0.7,0.8,1.2,1.4,1.5
			c0.6,0.3,1.3,0.5,2.1,0.5c0.5,0,1-0.1,1.4-0.2c0.4-0.1,0.8-0.4,1.1-0.7c0.3-0.3,0.6-0.7,0.7-1.1l2.6,0.5c-0.2,0.8-0.6,1.4-1.1,2
			c-0.5,0.6-1.2,1-2,1.3C47.2,65.8,46.3,65.9,45.3,65.9z"/>
		<path class="st4" d="M64.8,55l-2.5,0.4c-0.1-0.3-0.3-0.6-0.5-0.9c-0.2-0.3-0.5-0.5-0.9-0.7c-0.4-0.2-0.9-0.3-1.4-0.3
			c-0.8,0-1.4,0.2-1.9,0.5s-0.8,0.8-0.8,1.3c0,0.5,0.2,0.9,0.5,1.1s0.9,0.5,1.7,0.7l2.2,0.5c1.3,0.3,2.3,0.8,2.9,1.4
			c0.6,0.6,1,1.4,1,2.4c0,0.8-0.2,1.6-0.7,2.3c-0.5,0.7-1.2,1.2-2,1.5c-0.9,0.4-1.9,0.6-3,0.6c-1.6,0-2.9-0.3-3.9-1
			c-1-0.7-1.6-1.6-1.8-2.9l2.7-0.4c0.2,0.7,0.5,1.2,1,1.6c0.5,0.4,1.2,0.5,2,0.5c0.9,0,1.6-0.2,2.2-0.6c0.5-0.4,0.8-0.8,0.8-1.4
			c0-0.4-0.2-0.8-0.5-1.1c-0.3-0.3-0.8-0.5-1.5-0.7l-2.4-0.5c-1.3-0.3-2.3-0.8-2.9-1.4S54,56.5,54,55.5c0-0.8,0.2-1.6,0.7-2.2
			c0.5-0.6,1.1-1.1,1.9-1.5c0.8-0.4,1.8-0.5,2.8-0.5c1.5,0,2.7,0.3,3.6,1C63.9,53,64.5,53.8,64.8,55z"/>
		<path class="st4" d="M74.4,51.5v2.2h-7.7v-2.2H74.4z M68.8,48.1h2.7v13.4c0,0.5,0.1,0.9,0.2,1.2c0.2,0.3,0.4,0.4,0.6,0.5
			c0.3,0.1,0.5,0.1,0.8,0.1c0.2,0,0.4,0,0.6,0c0.2,0,0.3-0.1,0.4-0.1l0.5,2.3c-0.2,0.1-0.4,0.1-0.7,0.2c-0.3,0.1-0.7,0.1-1.1,0.1
			c-0.7,0-1.4-0.1-2-0.4c-0.6-0.3-1.1-0.7-1.5-1.3s-0.6-1.3-0.6-2.1V48.1z"/>
		<path class="st4" d="M85.7,46.8l5.2,15.3h0.2l5.2-15.3h3.1l-6.8,18.8h-3.3l-6.8-18.8H85.7z"/>
		<path class="st4" d="M105.8,65.9c-0.9,0-1.7-0.2-2.4-0.5c-0.7-0.3-1.3-0.8-1.7-1.5c-0.4-0.6-0.6-1.4-0.6-2.3c0-0.8,0.2-1.5,0.5-2
			c0.3-0.5,0.7-0.9,1.2-1.2c0.5-0.3,1.1-0.5,1.7-0.7s1.3-0.3,2-0.3c0.8-0.1,1.5-0.2,2.1-0.2c0.5-0.1,0.9-0.2,1.1-0.3
			c0.2-0.1,0.4-0.4,0.4-0.7v-0.1c0-0.8-0.2-1.4-0.7-1.9c-0.5-0.4-1.1-0.7-2-0.7c-0.9,0-1.7,0.2-2.2,0.6s-0.9,0.9-1.1,1.4l-2.6-0.6
			c0.3-0.9,0.8-1.6,1.3-2.1c0.6-0.5,1.3-0.9,2-1.2s1.6-0.4,2.4-0.4c0.6,0,1.2,0.1,1.8,0.2c0.6,0.1,1.2,0.4,1.8,0.7
			c0.6,0.3,1,0.8,1.4,1.5c0.4,0.6,0.5,1.5,0.5,2.5v9.4h-2.7v-1.9H110c-0.2,0.4-0.4,0.7-0.8,1s-0.8,0.6-1.4,0.9
			C107.3,65.8,106.6,65.9,105.8,65.9z M106.4,63.7c0.8,0,1.4-0.2,2-0.5s1-0.7,1.2-1.2s0.4-1,0.4-1.6v-1.8c-0.1,0.1-0.3,0.2-0.6,0.3
			c-0.3,0.1-0.6,0.2-1,0.2c-0.4,0.1-0.7,0.1-1,0.2c-0.3,0-0.6,0.1-0.8,0.1c-0.5,0.1-1,0.2-1.5,0.3c-0.4,0.2-0.8,0.4-1,0.7
			c-0.3,0.3-0.4,0.7-0.4,1.2c0,0.7,0.3,1.2,0.8,1.5S105.7,63.7,106.4,63.7z"/>
		<path class="st4" d="M119,46.8v18.8h-2.7V46.8H119z"/>
		<path class="st4" d="M131.4,59.8v-8.3h2.8v14.1h-2.7v-2.4h-0.1c-0.3,0.8-0.8,1.4-1.6,1.9c-0.7,0.5-1.6,0.7-2.7,0.7
			c-0.9,0-1.7-0.2-2.4-0.6c-0.7-0.4-1.2-1-1.6-1.8c-0.4-0.8-0.6-1.8-0.6-2.9v-9h2.7v8.7c0,1,0.3,1.7,0.8,2.3
			c0.5,0.6,1.2,0.9,2.1,0.9c0.5,0,1-0.1,1.5-0.4c0.5-0.3,0.9-0.6,1.3-1.2S131.4,60.6,131.4,59.8z"/>
		<path class="st4" d="M143.7,65.9c-1.4,0-2.6-0.3-3.6-0.9s-1.8-1.4-2.3-2.5c-0.5-1.1-0.8-2.4-0.8-3.8c0-1.4,0.3-2.7,0.8-3.8
			c0.5-1.1,1.3-2,2.3-2.6c1-0.6,2.1-0.9,3.4-0.9c0.8,0,1.6,0.1,2.3,0.4c0.7,0.3,1.4,0.7,2,1.2s1.1,1.3,1.4,2.2
			c0.3,0.9,0.5,2,0.5,3.3v1h-11.2v-2.1h8.5c0-0.7-0.1-1.4-0.4-1.9c-0.3-0.6-0.7-1-1.2-1.3c-0.5-0.3-1.2-0.5-1.9-0.5
			c-0.8,0-1.4,0.2-2,0.6c-0.6,0.4-1,0.9-1.3,1.5c-0.3,0.6-0.5,1.3-0.5,2v1.6c0,0.9,0.2,1.7,0.5,2.4c0.3,0.7,0.8,1.2,1.4,1.5
			c0.6,0.3,1.3,0.5,2.1,0.5c0.5,0,1-0.1,1.4-0.2c0.4-0.1,0.8-0.4,1.1-0.7c0.3-0.3,0.6-0.7,0.7-1.1l2.6,0.5c-0.2,0.8-0.6,1.4-1.1,2
			c-0.5,0.6-1.2,1-2,1.3C145.6,65.8,144.7,65.9,143.7,65.9z"/>
		<path class="st4" d="M154.5,65.8c-0.5,0-0.9-0.2-1.3-0.5c-0.4-0.4-0.5-0.8-0.5-1.3c0-0.5,0.2-0.9,0.5-1.3c0.4-0.4,0.8-0.5,1.3-0.5
			c0.5,0,0.9,0.2,1.3,0.5c0.4,0.4,0.5,0.8,0.6,1.3c0,0.3-0.1,0.6-0.3,0.9c-0.2,0.3-0.4,0.5-0.7,0.7S154.9,65.8,154.5,65.8z
			 M156,46.8l-0.2,13.4h-2.5L153,46.8H156z"/>
	</g>
</g>
</svg>
